Moton_kv03_j
version=1
nRows=8
nColumns=43
inDegrees=yes
endheader
time	pelvis_tilt	pelvis_list	pelvis_rotation	pelvis_tx	pelvis_ty	pelvis_tz	hip_flexion_r	hip_adduction_r	hip_rotation_r	knee_angle_r	ankle_angle_r	subtalar_angle_r	mtp_angle_r	hip_flexion_l	hip_adduction_l	hip_rotation_l	knee_angle_l	ankle_angle_l	subtalar_angle_l	mtp_angle_l	lumbar_extension	lumbar_bending	lumbar_rotation	neck_flexion	neck_lateral_bending	neck_rotation	arm_flex_r	arm_add_r	arm_rot_r	elbow_flex_r	pro_sup_r	wrist_flex_r	wrist_dev_r	hand_finger_flex_r	arm_flex_l	arm_add_l	arm_rot_l	elbow_flex_l	pro_sup_l	wrist_flex_l	wrist_dev_l	hand_finger_flex_l
      0.74250000	     -0.24576139	      9.54528501	    -87.81944928	     -0.03707020	      0.94544023	      0.36137603	     -2.96064322	     -2.46757533	    -10.74769746	     -7.29021033	     10.54053406	     12.52882465	     11.87252944	     -3.13262207	     -5.79759766	    -14.74544723	     -5.05056910	      2.36863815	     33.10043755	     20.80567330	    -29.16368699	     -0.07365318	      1.95083460	     22.06925274	      2.72178958	     -6.31857460	     69.53180496	    -26.78030509	     16.64439904	     56.53856283	    155.69915785	     -5.73041290	     -5.85998000	    -26.57520976	     78.91677904	    -19.81796930	     28.55182664	     46.07361174	    148.02516738	     -3.90991473	     -2.07192603	    -32.96833511
      0.74500000	     -0.24700134	      9.59362840	    -87.82707674	     -0.03707208	      0.94535331	      0.36269303	     -2.98059512	     -2.47243685	    -10.74572754	     -7.30761218	     10.53367817	     12.52964339	     11.87317773	     -3.15646581	     -5.81105305	    -14.73990090	     -5.07098728	      2.36361042	     33.10028006	     20.80693216	    -29.16743083	     -0.07935938	      1.94443339	     22.05671165	      2.72385710	     -6.31849575	     69.54574694	    -26.79346450	     16.62730341	     56.56135748	    155.69591483	     -5.74476650	     -5.85906332	    -26.57686562	     78.89628391	    -19.84780181	     28.54925536	     46.06811593	    148.02722480	     -3.91320455	     -2.07542376	    -32.96515407
      0.74750000	     -0.25481829	      9.64375042	    -87.87948298	     -0.03724150	      0.94519236	      0.36476318	     -3.07652538	     -2.44624902	    -10.75918087	     -7.25043176	     10.39913014	     12.59826005	     12.00760453	     -3.24832990	     -5.82225997	    -14.74296749	     -5.05918338	      2.30756776	     33.11348637	     20.97038319	    -29.13409879	     -0.05498069	      1.86861611	     21.86847824	      2.65031124	     -6.19851787	     69.03846393	    -26.65282829	     16.23554341	     57.17815611	    155.39311022	     -6.22594065	     -5.70902298	    -26.34590666	     78.44141291	    -20.33429466	     28.36202032	     46.72163866	    148.30785371	     -4.37120262	     -2.36288758	    -32.46582886
      0.75000000	     -0.25791239	      9.68833846	    -87.88363640	     -0.03719303	      0.94509738	      0.36610887	     -3.09600908	     -2.46596726	    -10.75464692	     -7.27368973	     10.39313327	     12.59941081	     12.00874660	     -3.27584309	     -5.85020637	    -14.73832275	     -5.08209207	      2.30130027	     33.11375325	     20.97171891	    -29.13442579	     -0.06006009	      1.85476878	     21.85397969	      2.65065572	     -6.19749421	     69.04236192	    -26.67312966	     16.22709978	     57.19135748	    155.39117913	     -6.23015907	     -5.70911153	    -26.34230798	     78.42248306	    -20.35021192	     28.36142879	     46.72163987	    148.31245787	     -4.37431568	     -2.36428607	    -32.45823616
      0.75250000	     -0.25605995	      9.63911328	    -87.86164681	     -0.03722364	      0.94506267	      0.36802027	     -3.15955921	     -2.48023837	    -10.67686007	     -7.51158513	     10.32364518	     12.64438182	     12.04904292	     -3.36359795	     -5.88357819	    -14.66322585	     -5.24422503	      2.23499282	     33.16525494	     21.01385244	    -29.17781800	     -0.04244005	      1.78738591	     21.37179229	      2.65125765	     -6.14676952	     68.70052826	    -26.82201959	     16.21280523	     57.69447315	    155.29943752	     -6.32084499	     -5.74222193	    -26.23383141	     78.13422066	    -20.61555999	     28.30936516	     47.13178158	    148.45014077	     -4.56621166	     -2.46987877	    -32.25676977
      0.75500000	     -0.31162975	      9.68777655	    -87.90260502	     -0.03706016	      0.94484636	      0.37015820	     -3.25407140	     -2.46253774	    -11.06183468	     -7.46543175	     10.14099581	     13.18771433	     13.72055435	     -3.47729321	     -5.94518297	    -14.86263191	     -5.19881944	      2.06362044	     33.46739279	     22.70122134	    -29.14328698	      0.02729788	      1.85738254	     21.47013438	      2.57664162	     -6.15434801	     68.37177891	    -26.99022157	     16.27836782	     58.14253132	    154.68486313	     -8.10142107	     -5.39934832	    -22.25788727	     77.28242681	    -20.31188450	     26.45243942	     47.56260544	    152.05666178	     -7.96883730	     -3.00304291	    -22.48315204
      0.75750000	     -0.29766816	      9.70728184	    -87.86725123	     -0.03704466	      0.94473092	      0.37181475	     -3.28954960	     -2.48470286	    -11.00653069	     -7.57743994	     10.08610026	     13.16587369	     13.72242850	     -3.54123405	     -5.94791104	    -14.82196694	     -5.21019454	      1.98801055	     33.47002142	     22.70121710	    -29.13160386	      0.03558205	      1.74794623	     21.15851960	      2.59023303	     -6.09030188	     68.19599167	    -27.03102292	     16.28228206	     58.41722885	    154.60577694	     -8.09172059	     -5.44941885	    -22.18397971	     77.10973569	    -20.49491617	     26.45616139	     47.75118168	    151.94944575	     -8.18223419	     -3.03387958	    -22.46301127
      0.76000000	     -0.28826824	      9.74003548	    -87.87953215	     -0.03708439	      0.94456935	      0.37361671	     -3.34269882	     -2.49530621	    -10.98516425	     -7.62644599	     10.08001534	     13.13442386	     13.73722861	     -3.61076286	     -5.95424087	    -14.77759348	     -5.23510723	      1.94488018	     33.48780826	     22.71317073	    -29.10355606	      0.02813554	      1.68472788	     20.93875317	      2.58314503	     -6.01533313	     67.97625437	    -27.07648266	     16.23086225	     58.73777019	    154.47272537	     -8.04951843	     -5.46607865	    -22.06728496	     76.86447913	    -20.72722133	     26.44054567	     48.03033800	    151.85176526	     -8.44092325	     -3.09148136	    -22.39804584
